<svg xmlns="http://www.w3.org/2000/svg" viewBox="21 15 86 73">
    <defs>
        <linearGradient id="avGradient" x1="0%" y1="0%" x2="100%" y2="100%">
            <stop offset="0%" style="stop-color:#FF3CAC"/>
            <stop offset="100%" style="stop-color:#784BA0"/>
        </linearGradient>
    </defs>

    <path fill="url(#avGradient)" d="M50.4 78.5a75.1 75.1 0 0 0-28.5 6.9l24.2-65.7c.7-2 1.9-3.2 3.4-3.2h29c1.5 0 2.7 1.2 3.4 3.2l24.2 65.7s-11.6-7-28.5-7L67 45.5c-.4-1.7-1.6-2.8-2.9-2.8-1.3 0-2.5 1.1-2.9 2.7L50.4 78.5Z" />

    <path fill="#0047AB" transform="translate(64, 67) scale(1.35) translate(-64, -67)" d="M64,78 C64,78 56.5,64 56.5,61 C56.5,58 59.5,56 62,58.5 C63,59.5 64,62 64,62 C64,62 65,59.5 66,58.5 C68.5,56 71.5,58 71.5,61 C71.5,64 64,78 64,78 Z M62.8,64 C62.8,64 64,67 64,67 C64,67 65.2,64 65.2,64 C66.5,62 68,61.5 68.5,62 C69,62.5 68.5,64 67.5,65.5 C66,68 64,71.5 64,71.5 C64,71.5 62,68 60.5,65.5 C59.5,64 59,62.5 59.5,62 C60,61.5 61.5,62 62.8,64 Z"/>
</svg>
